<svg xmlns="http://www.w3.org/2000/svg" xmlns:xlink="http://www.w3.org/1999/xlink" width="500" zoomAndPan="magnify" viewBox="0 0 375 374.999991" height="500" preserveAspectRatio="xMidYMid meet" version="1.0"><defs><clipPath id="200a788470"><path d="M 227 54.527344 L 254 54.527344 L 254 81 L 227 81 Z M 227 54.527344 " clip-rule="nonzero"/></clipPath><clipPath id="de46adafbf"><path d="M 0 156 L 375 156 L 375 320.777344 L 0 320.777344 Z M 0 156 " clip-rule="nonzero"/></clipPath></defs><path fill="#905efe" d="M 302.804688 102.144531 L 307.171875 72.152344 L 307.652344 72.152344 L 308.050781 74.65625 C 309.082031 81.34375 310.132812 88.027344 311.105469 94.695312 C 311.371094 96.453125 311.390625 98.246094 311.542969 100.042969 C 311.695312 101.839844 311.828125 102.164062 313.8125 102.429688 L 341.097656 106.15625 C 341.492188 106.269531 341.878906 106.402344 342.261719 106.554688 C 341.34375 106.765625 340.847656 106.898438 340.351562 106.976562 C 333.625 108.007812 326.875 109.019531 320.109375 110.015625 C 317.933594 110.320312 315.742188 110.53125 313.566406 110.796875 C 311.808594 111.007812 311.789062 111.0625 311.542969 112.859375 C 310.269531 121.902344 309.039062 130.925781 307.839844 139.925781 C 307.800781 140.214844 307.667969 140.453125 307.441406 140.632812 C 306.335938 135.78125 305.703125 130.855469 304.960938 125.964844 C 304.214844 121.074219 303.566406 116.144531 302.882812 111.160156 L 273.328125 106.84375 C 276.398438 105.429688 279.71875 105.488281 282.867188 104.933594 C 286.015625 104.378906 289.449219 103.882812 292.730469 103.421875 C 296.011719 102.964844 299.390625 102.5625 302.804688 102.144531 Z M 302.804688 102.144531 " fill-opacity="1" fill-rule="nonzero"/><path fill="#905efe" d="M 102.09375 179.523438 L 103.714844 168.40625 L 103.886719 168.40625 C 103.886719 168.714844 103.886719 169.019531 104.039062 169.34375 C 104.421875 171.808594 104.800781 174.292969 105.164062 176.753906 C 105.257812 177.425781 105.277344 178.09375 105.335938 178.664062 C 105.394531 179.238281 105.335938 179.46875 106.175781 179.5625 L 116.289062 180.9375 L 116.726562 181.089844 L 116.019531 181.246094 L 108.503906 182.371094 C 107.703125 182.484375 106.898438 182.5625 106.078125 182.65625 C 105.257812 182.753906 105.410156 182.65625 105.335938 183.421875 L 103.960938 193.46875 C 103.9375 193.566406 103.882812 193.648438 103.808594 193.71875 C 103.390625 191.921875 103.160156 190.089844 102.894531 188.273438 C 102.625 186.460938 102.378906 184.703125 102.113281 182.792969 L 91.160156 181.1875 C 92.3125 180.804688 93.496094 180.5625 94.707031 180.460938 C 95.929688 180.230469 97.152344 180.078125 98.371094 179.90625 C 99.59375 179.734375 100.8125 179.679688 102.09375 179.523438 Z M 102.09375 179.523438 " fill-opacity="1" fill-rule="nonzero"/><g clip-path="url(#200a788470)"><path fill="#905efe" d="M 238.488281 65.925781 L 240.1875 54.808594 L 240.398438 54.808594 C 240.398438 55.113281 240.511719 55.441406 240.550781 55.746094 C 240.929688 58.230469 241.3125 60.691406 241.675781 63.175781 C 241.675781 63.824219 241.789062 64.492188 241.847656 65.085938 C 241.902344 65.679688 241.960938 65.871094 242.6875 65.964844 L 252.796875 67.339844 L 253.238281 67.492188 C 253.003906 67.554688 252.769531 67.605469 252.53125 67.644531 L 245.015625 68.773438 C 244.210938 68.886719 243.410156 68.964844 242.589844 69.058594 C 241.769531 69.15625 241.941406 69.175781 241.847656 69.84375 L 240.398438 79.949219 C 240.375 80.054688 240.324219 80.144531 240.246094 80.214844 C 239.824219 78.417969 239.613281 76.585938 239.328125 74.769531 C 239.042969 72.957031 238.8125 71.121094 238.566406 69.289062 L 227.59375 67.683594 C 228.746094 67.28125 229.929688 67.039062 231.144531 66.957031 C 232.363281 66.710938 233.585938 66.558594 234.804688 66.386719 C 236.027344 66.214844 237.285156 66.078125 238.488281 65.925781 Z M 238.488281 65.925781 " fill-opacity="1" fill-rule="nonzero"/></g><path fill="#905efe" d="M 249.726562 101.476562 C 249.726562 102.164062 249.726562 102.832031 249.726562 103.480469 C 249.554688 107.148438 249.25 110.816406 249.152344 114.484375 C 248.980469 120.976562 248.964844 127.453125 248.8125 133.929688 C 248.765625 135.171875 248.570312 136.386719 248.21875 137.578125 C 247.722656 139.355469 246.769531 140.042969 245.375 139.964844 C 245.019531 139.910156 244.683594 139.800781 244.363281 139.636719 C 244.042969 139.476562 243.753906 139.265625 243.503906 139.007812 C 243.25 138.75 243.042969 138.460938 242.882812 138.140625 C 242.726562 137.816406 242.621094 137.476562 242.570312 137.121094 C 242.523438 136.742188 242.523438 136.367188 242.570312 135.992188 C 242.554688 132.519531 241.996094 129.136719 240.894531 125.839844 C 239.796875 122.546875 238.210938 119.503906 236.140625 116.71875 C 234.507812 114.269531 232.601562 112.058594 230.417969 110.085938 C 228.234375 108.113281 225.84375 106.441406 223.246094 105.066406 C 220.097656 103.402344 216.785156 102.207031 213.304688 101.476562 C 208.570312 100.460938 203.789062 100.097656 198.957031 100.386719 C 195.3125 100.496094 191.757812 101.117188 188.292969 102.25 C 184.828125 103.378906 181.589844 104.972656 178.582031 107.035156 C 177.019531 108.117188 175.582031 109.34375 174.273438 110.722656 C 172.964844 112.101562 171.808594 113.597656 170.804688 115.210938 C 169.800781 116.824219 168.972656 118.527344 168.320312 120.3125 C 167.667969 122.097656 167.199219 123.929688 166.921875 125.8125 C 166.492188 128.527344 166.398438 131.257812 166.644531 134 C 166.890625 136.742188 167.46875 139.410156 168.375 142.007812 C 169.40625 144.6875 170.777344 147.175781 172.496094 149.476562 C 176.175781 154.621094 180.441406 159.21875 185.296875 163.269531 L 186.652344 164.433594 C 186.515625 165.3125 185.90625 165.371094 185.277344 165.5625 C 180.449219 166.957031 151.355469 176.582031 150.039062 177.136719 C 149.085938 177.558594 148.128906 177.84375 146.929688 178.265625 C 146.335938 177.328125 145.726562 176.488281 145.230469 175.589844 C 143.007812 171.714844 141.203125 167.652344 139.8125 163.402344 C 138.675781 159.652344 137.867188 155.832031 137.390625 151.941406 C 136.789062 147.359375 136.652344 142.761719 136.96875 138.152344 C 137.4375 131.574219 139.117188 125.320312 142.003906 119.394531 C 145.339844 112.746094 149.882812 107.066406 155.628906 102.355469 C 160.527344 98.226562 165.957031 95 171.921875 92.667969 C 175.222656 91.410156 178.582031 90.28125 181.957031 89.269531 C 184.308594 88.613281 186.695312 88.109375 189.113281 87.761719 C 195.667969 86.667969 202.269531 86.195312 208.917969 86.347656 C 214.203125 86.574219 219.503906 87.035156 224.789062 87.53125 C 228.394531 87.894531 231.984375 88.429688 235.550781 89.019531 C 239.683594 89.652344 243.742188 90.605469 247.722656 91.886719 C 249.632812 92.535156 250.832031 93.796875 250.128906 96.890625 " fill-opacity="1" fill-rule="nonzero"/><g clip-path="url(#de46adafbf)"><path fill="#905efe" d="M 373.703125 185.945312 C 373.011719 183.675781 372.027344 181.539062 370.753906 179.539062 C 369.480469 177.539062 367.964844 175.746094 366.203125 174.15625 C 364.09375 172.203125 361.800781 170.503906 359.316406 169.058594 C 356.152344 167.222656 352.871094 165.632812 349.472656 164.28125 C 346.28125 163.085938 343.03125 162.074219 339.722656 161.246094 C 337.453125 160.632812 335.105469 160.230469 332.796875 159.734375 C 330.890625 159.335938 328.980469 158.839844 326.957031 158.589844 C 323.792969 158.1875 320.625 157.960938 317.417969 157.671875 C 317.113281 157.671875 316.808594 157.558594 316.484375 157.539062 C 313.71875 157.367188 310.933594 157.175781 308.148438 157.023438 C 307.859375 157.023438 307.554688 157.195312 307.230469 157.214844 C 306.488281 157.253906 305.742188 157.253906 305 157.214844 C 303.953125 157.058594 302.90625 156.988281 301.851562 157.003906 C 299.796875 157.167969 297.742188 157.167969 295.6875 157.003906 C 288.054688 156.660156 280.558594 157.5 273.003906 157.882812 C 272.4375 157.9375 271.878906 158.019531 271.324219 158.132812 L 268.175781 158.511719 C 265.3125 158.820312 262.453125 159.085938 259.609375 159.410156 C 257.703125 159.621094 255.90625 159.90625 254.058594 160.195312 C 251.652344 160.558594 249.25 160.976562 246.84375 161.359375 C 244.9375 161.664062 243.03125 161.855469 241.121094 162.21875 C 238.011719 162.8125 234.921875 163.5 231.792969 164.128906 C 228.664062 164.757812 226.070312 165.179688 223.167969 165.734375 C 221.890625 165.980469 220.632812 166.289062 219.351562 166.574219 L 211.339844 168.484375 C 209.105469 169.019531 206.875 169.574219 204.644531 170.164062 C 202.410156 170.757812 200.101562 171.386719 197.8125 172.074219 C 195.523438 172.761719 193.460938 173.144531 191.304688 173.757812 C 188.5 174.539062 185.714844 175.417969 182.910156 176.257812 L 174.324219 178.78125 L 171.539062 179.601562 C 162.929688 181.960938 154.480469 184.8125 146.203125 188.160156 C 144.847656 188.636719 143.492188 189.152344 142.160156 189.648438 C 141.984375 189.710938 141.824219 189.800781 141.679688 189.917969 L 138.6875 191.121094 L 138.417969 191.121094 L 133.058594 193.296875 C 133.066406 193.257812 133.066406 193.222656 133.058594 193.183594 C 131.664062 193.699219 130.425781 194.117188 129.242188 194.652344 L 115.734375 200.574219 C 108.75 203.554688 104.078125 205.714844 104.078125 205.714844 L 103.90625 205.886719 L 101.996094 206.726562 C 92.457031 211.121094 82.917969 215.953125 73.742188 221.089844 C 65.777344 225.523438 57.886719 230.074219 50.0625 234.75 C 45.425781 237.5 40.90625 240.480469 36.460938 243.554688 C 31.144531 247.222656 25.902344 250.996094 20.738281 254.882812 C 16.015625 258.507812 11.5625 262.445312 7.382812 266.6875 C 4.851562 269.257812 2.570312 272.035156 0.535156 275.015625 C 0.328125 275.378906 0.160156 275.761719 0.0390625 276.160156 C 0.34375 276.160156 0.496094 276.160156 0.574219 276.160156 C 8.433594 271.082031 16.542969 266.417969 24.804688 262.0625 C 31.097656 258.742188 37.394531 255.453125 43.75 252.304688 C 50.101562 249.152344 56.226562 246.265625 62.503906 243.285156 C 66.527344 241.375 70.59375 239.582031 74.617188 237.691406 L 100.089844 226.496094 L 104.25 224.585938 L 106.84375 223.652344 L 107.207031 223.515625 L 149.179688 207.929688 L 149.65625 207.777344 C 152.863281 206.746094 156.042969 205.746094 159.195312 204.777344 C 161.390625 204.109375 163.621094 203.59375 165.777344 202.867188 C 166.234375 202.660156 166.707031 202.601562 167.203125 202.691406 C 167.695312 202.78125 168.117188 203.007812 168.46875 203.363281 C 172.742188 206.992188 177.015625 210.605469 181.402344 214.097656 C 186.554688 218.226562 191.820312 222.199219 197.011719 226.265625 C 202.179688 230.25 206.898438 234.707031 211.167969 239.636719 C 214.941406 243.8125 217.992188 248.460938 220.324219 253.582031 C 221.320312 255.910156 222.132812 258.296875 222.769531 260.746094 C 223.300781 262.90625 223.378906 265.160156 223.703125 267.375 C 224.082031 270.152344 224.078125 272.933594 223.699219 275.710938 C 223.320312 278.492188 222.578125 281.167969 221.46875 283.746094 C 220.710938 285.566406 219.796875 287.308594 218.730469 288.96875 C 217.667969 290.632812 216.46875 292.1875 215.132812 293.640625 C 213.796875 295.09375 212.347656 296.417969 210.78125 297.621094 C 209.214844 298.820312 207.554688 299.875 205.804688 300.785156 C 202.726562 302.445312 199.480469 303.683594 196.074219 304.488281 C 193.785156 305.042969 191.363281 305.0625 189.054688 305.558594 C 184.34375 306.550781 179.667969 305.75 175.050781 305.175781 C 171.722656 304.628906 168.484375 303.746094 165.339844 302.523438 C 161.792969 301.253906 158.523438 299.480469 155.527344 297.195312 C 152.535156 294.914062 149.953125 292.234375 147.785156 289.152344 C 144.007812 283.734375 141.460938 277.785156 140.15625 271.308594 C 139.09375 267.316406 138.574219 263.253906 138.589844 259.121094 C 138.585938 258.5625 138.476562 258.019531 138.265625 257.5 C 138.183594 257.21875 138.054688 256.957031 137.886719 256.714844 C 137.714844 256.476562 137.511719 256.269531 137.273438 256.097656 C 137.035156 255.925781 136.777344 255.792969 136.496094 255.707031 C 136.214844 255.621094 135.925781 255.582031 135.632812 255.589844 C 135.328125 255.574219 135.03125 255.609375 134.738281 255.691406 C 134.445312 255.777344 134.171875 255.90625 133.921875 256.078125 C 133.671875 256.25 133.453125 256.457031 133.269531 256.699219 C 133.085938 256.945312 132.945312 257.210938 132.847656 257.5 C 132.402344 258.394531 132.101562 259.335938 131.949219 260.324219 C 131.609375 263.039062 131.300781 265.769531 131.1875 268.5 C 131.015625 272.800781 130.710938 277.097656 130.539062 281.375 C 130.15625 289.894531 130.347656 298.453125 130.347656 306.992188 C 130.402344 307.546875 130.535156 308.082031 130.75 308.597656 C 131.195312 309.671875 131.855469 310.597656 132.726562 311.371094 C 133.59375 312.144531 134.589844 312.691406 135.710938 313.007812 C 137.921875 313.964844 140.175781 314.917969 142.445312 315.664062 C 144.945312 316.554688 147.492188 317.308594 150.078125 317.917969 C 153.109375 318.585938 156.199219 319.0625 159.292969 319.445312 C 163.375 319.960938 167.476562 320.457031 171.578125 320.628906 C 176.328125 320.839844 181.117188 320.628906 185.851562 320.628906 C 187.167969 320.65625 188.484375 320.605469 189.800781 320.476562 C 192.636719 320.132812 195.476562 319.734375 198.328125 319.273438 C 200.980469 318.910156 203.609375 318.402344 206.207031 317.746094 C 209.585938 316.789062 212.921875 315.605469 216.183594 314.328125 C 224.457031 311.082031 231.75 306.332031 238.070312 300.078125 C 243.277344 294.972656 247.378906 289.097656 250.375 282.445312 C 252.191406 278.496094 253.464844 274.375 254.191406 270.085938 C 254.742188 267.664062 255.15625 265.21875 255.429688 262.75 C 256.125 254.371094 255.492188 246.09375 253.523438 237.917969 C 252.464844 233.40625 250.984375 229.039062 249.078125 224.816406 C 246.277344 219.230469 242.875 214.042969 238.871094 209.246094 C 234.789062 204.359375 230.390625 199.78125 225.667969 195.511719 C 224.121094 194.101562 222.632812 192.609375 221.109375 191.160156 C 221.109375 191.003906 221.242188 190.871094 221.296875 190.71875 C 224.046875 190.261719 226.792969 189.707031 229.539062 189.363281 C 233.949219 188.789062 238.355469 188.351562 242.742188 187.835938 L 243.507812 187.835938 C 246.519531 187.414062 249.535156 186.957031 252.570312 186.59375 C 255.164062 186.289062 257.796875 186.078125 260.410156 185.925781 C 264.644531 185.636719 268.882812 185.371094 273.136719 185.21875 C 276.683594 185.101562 280.253906 185.21875 283.800781 185.101562 C 290.898438 184.855469 297.9375 185.523438 305 185.90625 C 305.375 185.914062 305.753906 185.953125 306.125 186.019531 L 313.46875 187.261719 C 315.246094 187.566406 317.058594 187.683594 318.792969 188.140625 C 321.8125 188.882812 324.78125 189.785156 327.703125 190.851562 C 331.421875 192.082031 334.601562 194.144531 337.242188 197.042969 C 338.042969 197.949219 338.667969 198.964844 339.113281 200.089844 C 339.5625 201.214844 339.800781 202.382812 339.835938 203.59375 C 340.148438 207.417969 339.65625 211.136719 338.367188 214.75 C 337.511719 217.132812 336.527344 219.464844 335.410156 221.738281 C 332.898438 226.261719 329.867188 230.402344 326.308594 234.15625 C 321.230469 239.570312 315.722656 244.503906 309.789062 248.960938 C 304.175781 253.199219 298.324219 257.078125 292.234375 260.59375 C 285.234375 264.585938 278.117188 268.367188 271.039062 272.246094 L 269.339844 273.164062 C 269.664062 273.429688 270.027344 273.5 270.425781 273.371094 L 278.289062 270.066406 C 284.375 267.449219 290.535156 265.003906 296.527344 262.199219 C 303.816406 258.757812 311.007812 255.109375 318.144531 251.347656 C 326.472656 247.042969 334.460938 242.179688 342.109375 236.753906 C 345.636719 234.234375 349.203125 231.691406 352.523438 228.882812 C 356.289062 225.898438 359.738281 222.582031 362.867188 218.933594 C 365.039062 216.21875 367.425781 213.660156 369.332031 210.757812 C 371.492188 207.742188 372.941406 204.417969 373.683594 200.785156 C 374.046875 198.664062 374.734375 196.5625 374.921875 194.425781 C 375.078125 191.515625 374.671875 188.691406 373.703125 185.945312 Z M 373.703125 185.945312 " fill-opacity="1" fill-rule="nonzero"/></g></svg>